<?xml version="1.0" encoding="UTF-8"?><svg id="Layer_1" xmlns="http://www.w3.org/2000/svg" xmlns:xlink="http://www.w3.org/1999/xlink" viewBox="0 0 295.56 211.38"><defs><style>.cls-1{fill:url(#linear-gradient-7);}.cls-2{fill:url(#linear-gradient-5);}.cls-3{fill:url(#linear-gradient-6);}.cls-4{fill:url(#linear-gradient-4);}.cls-5{fill:url(#linear-gradient-3);}.cls-6{fill:url(#linear-gradient-2);}.cls-7{fill:url(#linear-gradient);}.cls-8{fill:#8d9962;}</style><linearGradient id="linear-gradient" x1="3.06" y1="119.76" x2="120.1" y2="119.76" gradientUnits="userSpaceOnUse"><stop offset="0" stop-color="#c59544"/><stop offset="1" stop-color="#e2b649"/></linearGradient><linearGradient id="linear-gradient-2" x1="148.02" y1="109.97" x2="148.02" y2="69.31" gradientUnits="userSpaceOnUse"><stop offset="0" stop-color="#e2b649"/><stop offset="1" stop-color="#f7d384"/></linearGradient><linearGradient id="linear-gradient-3" x1="118.45" y1="90.9" x2="146.91" y2="90.9" xlink:href="#linear-gradient-2"/><linearGradient id="linear-gradient-4" x1="87.76" y1="96.86" x2="142.04" y2="96.86" xlink:href="#linear-gradient-2"/><linearGradient id="linear-gradient-5" x1="-89.32" y1="119.76" x2="27.72" y2="119.76" gradientTransform="translate(203.46) rotate(-180) scale(1 -1)" xlink:href="#linear-gradient"/><linearGradient id="linear-gradient-6" x1="26.07" y1="90.9" x2="54.53" y2="90.9" gradientTransform="translate(203.46) rotate(-180) scale(1 -1)" xlink:href="#linear-gradient-2"/><linearGradient id="linear-gradient-7" x1="-4.61" y1="96.86" x2="49.67" y2="96.86" gradientTransform="translate(203.46) rotate(-180) scale(1 -1)" xlink:href="#linear-gradient-2"/></defs><path class="cls-8" d="M24.82,1.68c-.44.16-.74.47-.9.92-.16.45-.24,1.19-.24,2.2v19.84c0,1.01.08,1.75.24,2.2.16.45.46.76.9.92.44.16,1.14.27,2.1.32v.8c-1.12-.08-2.83-.12-5.12-.12-2.16,0-3.85.04-5.08.12v-.8c.96-.05,1.66-.16,2.1-.32.44-.16.74-.47.9-.92.16-.45.24-1.19.24-2.2v-9.6H6.96v9.6c0,1.01.08,1.75.24,2.2.16.45.46.76.9.92.44.16,1.14.27,2.1.32v.8c-1.23-.08-2.92-.12-5.08-.12-2.29,0-4,.04-5.12.12v-.8c.96-.05,1.66-.16,2.1-.32.44-.16.74-.47.9-.92.16-.45.24-1.19.24-2.2V4.8c0-1.01-.08-1.75-.24-2.2-.16-.45-.46-.76-.9-.92-.44-.16-1.14-.27-2.1-.32v-.8c1.12.08,2.83.12,5.12.12,2.13,0,3.83-.04,5.08-.12v.8c-.96.05-1.66.16-2.1.32-.44.16-.74.47-.9.92-.16.45-.24,1.19-.24,2.2v9.44h13V4.8c0-1.01-.08-1.75-.24-2.2-.16-.45-.46-.76-.9-.92-.44-.16-1.14-.27-2.1-.32v-.8c1.23.08,2.92.12,5.08.12,2.29,0,4-.04,5.12-.12v.8c-.96.05-1.66.16-2.1.32Z"/><path class="cls-8" d="M41.28,1.36c-.96.05-1.66.16-2.1.32-.44.16-.74.47-.9.92-.16.45-.24,1.19-.24,2.2v19.84c0,1.01.08,1.75.24,2.2.16.45.46.76.9.92.44.16,1.14.27,2.1.32v.8c-1.23-.08-2.92-.12-5.08-.12-2.29,0-4,.04-5.12.12v-.8c.96-.05,1.66-.16,2.1-.32.44-.16.74-.47.9-.92.16-.45.24-1.19.24-2.2V4.8c0-1.01-.08-1.75-.24-2.2-.16-.45-.46-.76-.9-.92-.44-.16-1.14-.27-2.1-.32v-.8c1.12.08,2.83.12,5.12.12,2.13,0,3.83-.04,5.08-.12v.8Z"/><path class="cls-8" d="M66.96,4.1c2.35,2.36,3.52,5.79,3.52,10.3,0,2.91-.57,5.45-1.72,7.64-1.15,2.19-2.81,3.87-4.98,5.06-2.17,1.19-4.77,1.78-7.78,1.78l-2.32-.04c-1.49-.05-2.59-.08-3.28-.08-2.19,0-3.84.04-4.96.12v-.8c.96-.05,1.66-.16,2.1-.32.44-.16.74-.47.9-.92.16-.45.24-1.19.24-2.2V4.8c0-1.01-.08-1.75-.24-2.2-.16-.45-.46-.76-.9-.92-.44-.16-1.14-.27-2.1-.32v-.8c.93.08,2.23.12,3.88.12l3.4-.04c1.81-.05,3.03-.08,3.64-.08,4.72,0,8.25,1.18,10.6,3.54ZM53.5,1.56c-.41.19-.7.52-.86,1-.16.48-.24,1.2-.24,2.16v20c0,.96.08,1.68.24,2.16.16.48.45.81.86,1,.41.19,1.05.28,1.9.28,2.83,0,5.05-.51,6.68-1.54,1.63-1.03,2.77-2.53,3.42-4.5.65-1.97.98-4.49.98-7.56s-.36-5.57-1.08-7.5c-.72-1.93-1.89-3.38-3.5-4.34-1.61-.96-3.79-1.44-6.54-1.44-.83,0-1.45.09-1.86.28Z"/><path class="cls-8" d="M96.32,4.1c2.35,2.36,3.52,5.79,3.52,10.3,0,2.91-.57,5.45-1.72,7.64-1.15,2.19-2.81,3.87-4.98,5.06-2.17,1.19-4.77,1.78-7.78,1.78l-2.32-.04c-1.49-.05-2.59-.08-3.28-.08-2.19,0-3.84.04-4.96.12v-.8c.96-.05,1.66-.16,2.1-.32.44-.16.74-.47.9-.92.16-.45.24-1.19.24-2.2V4.8c0-1.01-.08-1.75-.24-2.2-.16-.45-.46-.76-.9-.92-.44-.16-1.14-.27-2.1-.32v-.8c.93.08,2.23.12,3.88.12l3.4-.04c1.81-.05,3.03-.08,3.64-.08,4.72,0,8.25,1.18,10.6,3.54ZM82.86,1.56c-.41.19-.7.52-.86,1-.16.48-.24,1.2-.24,2.16v20c0,.96.08,1.68.24,2.16.16.48.45.81.86,1,.41.19,1.05.28,1.9.28,2.83,0,5.05-.51,6.68-1.54,1.63-1.03,2.77-2.53,3.42-4.5.65-1.97.98-4.49.98-7.56s-.36-5.57-1.08-7.5c-.72-1.93-1.89-3.38-3.5-4.34-1.61-.96-3.79-1.44-6.54-1.44-.83,0-1.45.09-1.86.28Z"/><path class="cls-8" d="M124.92,28.88c-1.81-.08-4.87-.12-9.16-.12-5.12,0-8.99.04-11.6.12v-.8c.96-.05,1.66-.16,2.1-.32.44-.16.74-.47.9-.92.16-.45.24-1.19.24-2.2V4.8c0-1.01-.08-1.75-.24-2.2-.16-.45-.46-.76-.9-.92-.44-.16-1.14-.27-2.1-.32v-.8c2.61.08,6.48.12,11.6.12,3.92,0,6.71-.04,8.36-.12-.19,1.76-.28,3.33-.28,4.72,0,1.04.04,1.87.12,2.48h-.92c-.19-1.73-.43-3.02-.72-3.86s-.79-1.45-1.48-1.84c-.69-.39-1.75-.58-3.16-.58h-3.32c-.96,0-1.66.07-2.1.22-.44.15-.74.45-.9.9-.16.45-.24,1.19-.24,2.2v9.44h2.64c.93,0,1.65-.22,2.16-.66.51-.44.85-.96,1.02-1.56.17-.6.31-1.35.42-2.26l.12-.8h.92c-.08,1.12-.12,2.37-.12,3.76v1.92c0,1.36.08,3.25.24,5.68h-.92c-.03-.19-.11-.83-.24-1.94-.13-1.11-.5-1.94-1.1-2.5-.6-.56-1.43-.84-2.5-.84h-2.64v9.6c0,1.01.08,1.75.24,2.2.16.45.46.75.9.9.44.15,1.14.22,2.1.22h2.92c1.65,0,2.91-.22,3.78-.66.87-.44,1.5-1.15,1.9-2.12.4-.97.69-2.41.88-4.3h.92c-.08.72-.12,1.68-.12,2.88,0,1.52.09,3.23.28,5.12Z"/><path class="cls-8" d="M154.44,1.36c-.93.05-1.63.19-2.08.42-.45.23-.76.6-.92,1.12s-.24,1.29-.24,2.3v23.88h-.92l-16.8-25.96v21.12c0,1.04.09,1.81.26,2.32.17.51.51.87,1.02,1.1.51.23,1.29.37,2.36.42v.8c-.96-.08-2.32-.12-4.08-.12-1.6,0-2.84.04-3.72.12v-.8c.93-.05,1.63-.19,2.08-.42.45-.23.76-.6.92-1.12.16-.52.24-1.29.24-2.3V4.8c0-1.01-.08-1.75-.24-2.2-.16-.45-.46-.76-.9-.92-.44-.16-1.14-.27-2.1-.32v-.8c.88.08,2.12.12,3.72.12,1.2,0,2.24-.04,3.12-.12l14.12,21.76V5.2c0-1.04-.09-1.81-.26-2.32-.17-.51-.51-.87-1.02-1.1-.51-.23-1.29-.37-2.36-.42v-.8c.96.08,2.32.12,4.08.12,1.6,0,2.84-.04,3.72-.12v.8Z"/><path class="cls-8" d="M179.32,1.36c-.96.05-1.66.16-2.1.32-.44.16-.74.47-.9.92-.16.45-.24,1.19-.24,2.2v19.84c0,1.01.08,1.75.24,2.2.16.45.46.75.9.9.44.15,1.14.22,2.1.22h2.92c1.65,0,2.91-.23,3.78-.7.87-.47,1.5-1.22,1.9-2.26.4-1.04.69-2.55.88-4.52h.92c-.08.83-.12,1.92-.12,3.28,0,1.52.09,3.23.28,5.12-1.81-.08-4.87-.12-9.16-.12-5.12,0-8.99.04-11.6.12v-.8c.96-.05,1.66-.16,2.1-.32.44-.16.74-.47.9-.92.16-.45.24-1.19.24-2.2V4.8c0-1.01-.08-1.75-.24-2.2-.16-.45-.46-.76-.9-.92-.44-.16-1.14-.27-2.1-.32v-.8c1.12.08,2.83.12,5.12.12,2.13,0,3.83-.04,5.08-.12v.8Z"/><path class="cls-8" d="M213.26,1.72c1.91,1.15,3.39,2.81,4.44,4.98,1.05,2.17,1.58,4.77,1.58,7.78s-.54,5.53-1.62,7.8c-1.08,2.27-2.59,4.03-4.52,5.28s-4.13,1.88-6.58,1.88-4.75-.57-6.66-1.72c-1.91-1.15-3.39-2.81-4.44-4.98-1.05-2.17-1.58-4.77-1.58-7.78s.54-5.53,1.62-7.8c1.08-2.27,2.59-4.03,4.52-5.28,1.93-1.25,4.13-1.88,6.58-1.88s4.75.57,6.66,1.72ZM201.94,2.5c-1.29,1.19-2.29,2.85-3,4.98-.71,2.13-1.06,4.57-1.06,7.32s.39,5.21,1.18,7.32c.79,2.11,1.85,3.73,3.18,4.88,1.33,1.15,2.83,1.72,4.48,1.72s3.21-.59,4.5-1.78c1.29-1.19,2.29-2.85,3-4.98.71-2.13,1.06-4.57,1.06-7.32s-.39-5.21-1.18-7.32c-.79-2.11-1.85-3.73-3.18-4.88-1.33-1.15-2.83-1.72-4.48-1.72s-3.21.59-4.5,1.78Z"/><path class="cls-8" d="M245.6,5.68c0,1.33.04,2.43.12,3.28h-.92c-.21-2.05-.48-3.58-.8-4.58-.32-1-.88-1.73-1.68-2.2-.8-.47-2.03-.7-3.68-.7h-2.16v22.76c0,1.12.11,1.93.32,2.44.21.51.59.85,1.12,1.04.53.19,1.4.31,2.6.36v.8c-1.39-.08-3.35-.12-5.88-.12-2.67,0-4.64.04-5.92.12v-.8c1.2-.05,2.07-.17,2.6-.36.53-.19.91-.53,1.12-1.04.21-.51.32-1.32.32-2.44V1.48h-2.16c-1.65,0-2.88.23-3.68.7-.8.47-1.36,1.2-1.68,2.2s-.59,2.53-.8,4.58h-.92c.08-.85.12-1.95.12-3.28,0-1.52-.09-3.23-.28-5.12,2.21.08,5.97.12,11.28.12s9.03-.04,11.24-.12c-.19,1.89-.28,3.6-.28,5.12Z"/><path class="cls-8" d="M274.04,1.36c-.93.05-1.63.19-2.08.42-.45.23-.76.6-.92,1.12s-.24,1.29-.24,2.3v12.04c0,1.92-.13,3.57-.38,4.94-.25,1.37-.67,2.55-1.26,3.54-.67,1.15-1.65,2.05-2.94,2.72-1.29.67-2.75,1-4.38,1-2.93,0-5.17-.72-6.72-2.16-1.17-1.09-1.96-2.33-2.36-3.72-.4-1.39-.6-3.45-.6-6.2V4.8c0-1.01-.08-1.75-.24-2.2-.16-.45-.46-.76-.9-.92-.44-.16-1.14-.27-2.1-.32v-.8c1.12.08,2.83.12,5.12.12,2.16,0,3.85-.04,5.08-.12v.8c-.96.05-1.66.16-2.1.32-.44.16-.74.47-.9.92-.16.45-.24,1.19-.24,2.2v13.24c0,2.13.15,3.91.44,5.32.29,1.41.9,2.55,1.82,3.4.92.85,2.27,1.28,4.06,1.28,2.83,0,4.81-.91,5.96-2.72,1.15-1.81,1.72-4.36,1.72-7.64V5.2c0-1.44-.26-2.43-.78-2.96-.52-.53-1.47-.83-2.86-.88v-.8c.96.08,2.32.12,4.08.12,1.6,0,2.84-.04,3.72-.12v.8Z"/><path class="cls-8" d="M288.94.5c.68.25,1.38.62,2.1,1.1.59.37,1.04.56,1.36.56.24,0,.43-.14.56-.42.13-.28.24-.73.32-1.34h.92c-.13,1.55-.2,4.27-.2,8.16h-.92c-.16-2.16-.78-3.98-1.86-5.46s-2.65-2.22-4.7-2.22c-1.44,0-2.61.43-3.52,1.3-.91.87-1.36,1.98-1.36,3.34,0,1.01.23,1.89.7,2.64.47.75,1.06,1.39,1.78,1.92.72.53,1.75,1.21,3.08,2.04l1.16.72c1.68,1.04,3.01,1.95,3.98,2.74s1.75,1.69,2.34,2.7c.59,1.01.88,2.2.88,3.56,0,2.43-.8,4.3-2.4,5.62-1.6,1.32-3.63,1.98-6.08,1.98-1.28,0-2.33-.13-3.14-.4-.81-.27-1.59-.63-2.34-1.08-.59-.37-1.04-.56-1.36-.56-.24,0-.43.14-.56.42-.13.28-.24.73-.32,1.34h-.92c.11-1.47.16-4.67.16-9.6h.92c.19,2.69.85,4.88,2,6.56,1.15,1.68,2.91,2.52,5.28,2.52,1.44,0,2.67-.45,3.68-1.34,1.01-.89,1.52-2.22,1.52-3.98,0-1.49-.5-2.76-1.5-3.8s-2.58-2.21-4.74-3.52c-1.57-.96-2.85-1.81-3.82-2.56-.97-.75-1.77-1.65-2.38-2.7-.61-1.05-.92-2.29-.92-3.7,0-2.24.72-3.95,2.16-5.14,1.44-1.19,3.23-1.78,5.36-1.78,1.17,0,2.1.13,2.78.38Z"/><path class="cls-8" d="M146.12,155.2v.71c0,2.33-.87,4.58-2.45,6.29-10.3,11.19-31.09,29.67-49.24,20.74-25.32-12.46-42.51-6.21-42.51-6.21,21.46-22.71,68.33-28.06,88.95-27.03,2.94.15,5.24,2.56,5.24,5.5Z"/><path class="cls-7" d="M58.46,145.77c6.87,3.93,16.56,6.32,27.67,7.05,11.51-3.5,23.45-5.55,33.97-6.51-10-4.24-18.71-11.73-25.16-22.02-3.18-5.08-5.63-10.5-7.36-16.12-16.87-15.6-40.95-28.24-84.51-17.47,30.97,19.66,34.97,43.4,55.39,55.06Z"/><path class="cls-8" d="M171.39,183.11c-.04,2.06-.14,4.27-1.36,5.99-4.82,6.73-13.11,7.15-21.99,22.28h-.01s-.02,0-.02,0c-.01,0-.02,0-.02,0-8.87-15.13-17.17-15.55-21.98-22.28-1.23-1.72-1.32-3.93-1.36-5.99,9.81-5.67,18.22-14.07,23.36-19.85h.02c5.13,5.78,13.54,14.18,23.36,19.85Z"/><path class="cls-8" d="M244.09,176.73s-17.17-6.24-42.51,6.21c-18.15,8.93-38.91-9.54-49.21-20.72-1.58-1.72-2.45-3.96-2.45-6.29v-.73c0-2.94,2.3-5.35,5.24-5.5,20.63-1.03,67.47,4.33,88.92,27.03Z"/><path class="cls-6" d="M148.02,71.99c4.28,3.75,9.28,16.62,7.81,20.81-.1.15-.24.38-.47.73-1.05,1.64-3.23,5.04-4.66,7.08-.96,1.3-1.85,2.89-2.68,4.48-.83-1.59-1.72-3.17-2.68-4.48-1.43-2.05-3.61-5.45-4.66-7.08-.23-.35-.37-.58-.47-.73-1.47-4.19,3.53-17.06,7.81-20.81M148.03,69.31h-.03c-5.61,2.95-12.02,19.12-9.78,24.51.08.1,3.37,5.32,5.32,8.09,1.65,2.24,3.18,5.57,4.46,8.06h.03c1.28-2.49,2.81-5.82,4.46-8.06,1.94-2.77,5.23-7.99,5.32-8.09,2.25-5.39-4.16-21.56-9.78-24.51h0Z"/><path class="cls-5" d="M146.91,146.01c.22-49.14-24.88-60.5-19.69-110.21-16.31,47.81-9.94,85.38,19.69,110.21Z"/><path class="cls-4" d="M116.72,101.78c-7.95-16.77-11.86-33.89-13.14-54.5-10.42,15.62-16.82,31.29-15.69,46.73,2.18,29.63,25.07,53.49,54.15,52.39-13.39-12.11-21.89-27.1-25.32-44.62Z"/><path class="cls-2" d="M237.38,145.77c-6.87,3.93-16.56,6.32-27.67,7.05-11.51-3.5-23.45-5.55-33.97-6.51,10-4.24,18.71-11.73,25.16-22.02,3.18-5.08,5.63-10.5,7.36-16.12,16.87-15.6,40.95-28.24,84.51-17.47-30.97,19.66-34.97,43.4-55.39,55.06Z"/><path class="cls-3" d="M148.93,146.01c-.22-49.14,24.88-60.5,19.69-110.21,16.31,47.81,9.94,85.38-19.69,110.21Z"/><path class="cls-1" d="M179.12,101.78c7.95-16.77,11.86-33.89,13.14-54.5,10.42,15.62,16.82,31.29,15.69,46.73-2.18,29.63-25.07,53.49-54.15,52.39,13.39-12.11,21.89-27.1,25.32-44.62Z"/></svg>