<?xml version="1.0" encoding="UTF-8"?><svg id="Layer_1" xmlns="http://www.w3.org/2000/svg" xmlns:xlink="http://www.w3.org/1999/xlink" viewBox="0 0 345.35 186.74"><defs><style>.cls-1{fill:#c2c628;}.cls-2{fill:url(#linear-gradient-7);}.cls-3{fill:url(#linear-gradient-5);}.cls-4{fill:url(#linear-gradient-6);}.cls-5{fill:url(#linear-gradient-4);}.cls-6{fill:url(#linear-gradient-3);}.cls-7{fill:url(#linear-gradient-2);}.cls-8{fill:#72a520;}.cls-9{fill:url(#linear-gradient);}.cls-10{fill:#e6a833;}</style><linearGradient id="linear-gradient" x1="141.97" y1="19.14" x2="168.64" y2="19.14" gradientUnits="userSpaceOnUse"><stop offset="0" stop-color="#cc922f"/><stop offset="1" stop-color="#e9b428"/></linearGradient><linearGradient id="linear-gradient-2" x1="175" y1="16.91" x2="175" y2="7.64" gradientUnits="userSpaceOnUse"><stop offset="0" stop-color="#e9b428"/><stop offset="1" stop-color="#fcd177"/></linearGradient><linearGradient id="linear-gradient-3" x1="168.26" y1="12.56" x2="174.75" y2="12.56" xlink:href="#linear-gradient-2"/><linearGradient id="linear-gradient-4" x1="161.27" y1="13.92" x2="173.64" y2="13.92" xlink:href="#linear-gradient-2"/><linearGradient id="linear-gradient-5" x1="49.59" y1="19.14" x2="76.26" y2="19.14" gradientTransform="translate(257.58) rotate(-180) scale(1 -1)" xlink:href="#linear-gradient"/><linearGradient id="linear-gradient-6" x1="75.89" y1="12.56" x2="82.37" y2="12.56" gradientTransform="translate(257.58) rotate(-180) scale(1 -1)" xlink:href="#linear-gradient-2"/><linearGradient id="linear-gradient-7" x1="68.89" y1="13.92" x2="81.26" y2="13.92" gradientTransform="translate(257.58) rotate(-180) scale(1 -1)" xlink:href="#linear-gradient-2"/></defs><path class="cls-1" d="M174.42,137.26c-30.49,0-55.29-24.8-55.29-55.29s24.8-55.29,55.29-55.29,55.29,24.8,55.29,55.29-24.8,55.29-55.29,55.29ZM174.42,35c-25.9,0-46.97,21.07-46.97,46.97s21.07,46.97,46.97,46.97,46.97-21.07,46.97-46.97-21.07-46.97-46.97-46.97Z"/><path class="cls-8" d="M0,185.71c.99,0,1.71-.13,2.16-.39.45-.26.68-.87.68-1.83v-24.52c0-.96-.23-1.57-.68-1.83-.45-.26-1.17-.39-2.16-.39v-.54h10.22v.54c-.96,0-1.67.12-2.12.37-.45.25-.69.82-.72,1.73v11.66h12.65v-11.54c0-.96-.23-1.57-.7-1.83-.47-.26-1.2-.39-2.18-.39v-.54h10.26v.54c-.99,0-1.71.13-2.16.39-.45.26-.68.87-.68,1.83v24.6c0,.93.23,1.53.68,1.77s1.17.37,2.16.37v.54h-10.26v-.54c.99,0,1.72-.13,2.18-.39.47-.26.7-.87.7-1.83v-12.44H7.38v12.86c.05.8.32,1.3.78,1.5.47.21,1.15.31,2.06.31v.54H0v-.54Z"/><path class="cls-8" d="M35.19,183.48v-24.52c0-.96-.23-1.57-.68-1.83-.45-.26-1.17-.39-2.16-.39v-.54h10.26v.54c-.99,0-1.72.13-2.18.39-.47.26-.7.87-.7,1.83v24.52c0,.96.23,1.57.7,1.83.47.26,1.18.39,2.14.39l.04.54h-10.26v-.54c.99,0,1.71-.13,2.16-.39.45-.26.68-.87.68-1.83Z"/><path class="cls-8" d="M47.55,185.71c.99,0,1.71-.13,2.16-.39.45-.26.68-.87.68-1.83v-24.52c0-.96-.23-1.57-.68-1.83-.45-.26-1.17-.39-2.16-.39v-.54h13.43c.91,0,1.92.06,3.05.17,1.13.11,2.27.34,3.42.68,1.15.34,2.28.84,3.38,1.48,1.1.65,2.07,1.51,2.93,2.6.85,1.08,1.54,2.42,2.06,4,.52,1.58.78,3.48.78,5.71,0,2-.28,3.94-.84,5.81-.56,1.87-1.49,3.51-2.78,4.92-1.29,1.42-3.01,2.55-5.15,3.4-2.14.85-4.78,1.28-7.91,1.28h-12.36v-.54ZM59.54,185.71c2.58,0,4.69-.45,6.33-1.36,1.63-.91,2.91-2.07,3.83-3.48.92-1.41,1.55-3.01,1.9-4.78.34-1.77.51-3.52.51-5.25,0-2.36-.3-4.42-.91-6.18-.6-1.76-1.44-3.22-2.49-4.39-1.06-1.17-2.31-2.05-3.75-2.64-1.44-.59-3.02-.89-4.72-.89-1.95,0-3.32.13-4.12.39-.8.26-1.19.86-1.19,1.79v24.56c0,.93.35,1.54,1.05,1.81.7.28,1.89.41,3.56.41Z"/><path class="cls-8" d="M82.37,185.71c.99,0,1.71-.13,2.16-.39.45-.26.68-.87.68-1.83v-24.52c0-.96-.23-1.57-.68-1.83-.45-.26-1.17-.39-2.16-.39v-.54h13.43c.91,0,1.92.06,3.05.17,1.13.11,2.27.34,3.42.68,1.15.34,2.28.84,3.38,1.48,1.1.65,2.07,1.51,2.93,2.6.85,1.08,1.54,2.42,2.06,4,.52,1.58.78,3.48.78,5.71,0,2-.28,3.94-.84,5.81-.56,1.87-1.49,3.51-2.78,4.92-1.29,1.42-3.01,2.55-5.15,3.4-2.14.85-4.78,1.28-7.91,1.28h-12.36v-.54ZM94.36,185.71c2.58,0,4.69-.45,6.33-1.36,1.63-.91,2.91-2.07,3.83-3.48.92-1.41,1.55-3.01,1.9-4.78.34-1.77.51-3.52.51-5.25,0-2.36-.3-4.42-.91-6.18-.6-1.76-1.44-3.22-2.49-4.39-1.06-1.17-2.31-2.05-3.75-2.64-1.44-.59-3.02-.89-4.72-.89-1.95,0-3.32.13-4.12.39-.8.26-1.19.86-1.19,1.79v24.56c0,.93.35,1.54,1.05,1.81.7.28,1.89.41,3.56.41Z"/><path class="cls-8" d="M117.19,185.71c.91,0,1.59-.11,2.06-.33.47-.22.74-.71.82-1.48l-.04-24.93c0-.96-.23-1.57-.68-1.83-.45-.26-1.17-.39-2.16-.39v-.54h21.3l2.18,6.51h-.54c-.38-1.18-.8-2.15-1.24-2.91-.44-.75-.95-1.36-1.54-1.81-.59-.45-1.31-.77-2.14-.95-.84-.18-1.83-.27-2.99-.27-1.48,0-2.71.02-3.69.06-.98.04-1.76.14-2.35.29-.59.15-1,.37-1.24.66-.23.29-.35.68-.35,1.17v11.25h4.74c1.13,0,2.01-.14,2.64-.41.63-.27,1.1-.67,1.4-1.2.3-.52.49-1.17.58-1.96.08-.78.12-1.7.12-2.74h.54v13.64h-.54c0-1.04-.03-1.98-.08-2.82-.06-.84-.23-1.55-.52-2.14s-.76-1.04-1.4-1.36c-.65-.32-1.56-.47-2.74-.47h-4.74v12.73c0,.47.09.84.27,1.13.18.29.48.52.91.68.43.17,1,.28,1.71.33.71.06,1.59.08,2.64.08,1.76,0,3.27-.29,4.53-.89,1.26-.59,2.35-1.39,3.26-2.41s1.68-2.21,2.31-3.58c.63-1.37,1.18-2.84,1.65-4.41h.54l-2.93,11.83h-22.29v-.54Z"/><path class="cls-8" d="M151.15,156.2h3.75l15.95,22.25-.04-19.49c0-.55-.06-.97-.19-1.28-.12-.3-.3-.52-.54-.66-.23-.14-.53-.22-.89-.25-.36-.03-.78-.04-1.28-.04v-.54h6.35v.54c-.47,0-.88.01-1.24.04-.36.03-.66.1-.91.23s-.43.32-.56.6c-.12.27-.2.66-.23,1.15l.04,27.49h-.54l-19.08-26.62v23.86c0,.55.06.98.19,1.28.12.3.31.52.56.66.25.14.55.22.91.25.36.03.78.04,1.28.04v.54h-6.39v-.54c.49,0,.93-.01,1.3-.04.37-.03.67-.11.91-.25.23-.14.41-.36.54-.66.12-.3.19-.73.19-1.28v-24.6c-.49-.82-1.09-1.39-1.79-1.69-.7-.3-1.52-.45-2.45-.45v-.54h4.16Z"/><path class="cls-8" d="M193.01,156.2h10.26v.54c-.99,0-1.71.13-2.16.39-.45.26-.68.87-.68,1.83v24.56c0,.49.09.89.27,1.17.18.29.48.51.91.66.43.15,1,.25,1.71.29.71.04,1.59.06,2.64.06,1.76,0,3.27-.29,4.53-.89,1.26-.59,2.35-1.39,3.25-2.41.91-1.02,1.68-2.21,2.31-3.58s1.18-2.84,1.65-4.41h.54l-2.93,11.83h-22.29v-.54c.47,0,.87,0,1.2-.02.33-.01.61-.08.84-.19.23-.11.42-.29.56-.54s.22-.59.25-1.03v-24.97c0-.96-.23-1.57-.68-1.83-.45-.26-1.17-.39-2.16-.39v-.54Z"/><path class="cls-8" d="M223.79,171.16c0-2.14.38-4.15,1.15-6.02s1.82-3.5,3.15-4.9c1.33-1.4,2.9-2.5,4.7-3.3,1.8-.8,3.71-1.2,5.75-1.2s3.96.4,5.77,1.2c1.81.8,3.39,1.9,4.74,3.3,1.35,1.4,2.41,3.04,3.19,4.9s1.17,3.87,1.17,6.02-.39,4.16-1.17,6.06-1.85,3.55-3.19,4.97c-1.35,1.42-2.93,2.53-4.74,3.34-1.81.81-3.74,1.21-5.77,1.21s-3.95-.41-5.75-1.21c-1.8-.81-3.37-1.92-4.7-3.34s-2.38-3.07-3.15-4.97-1.15-3.92-1.15-6.06ZM238.13,156.33c-1.57,0-2.93.39-4.1,1.17-1.17.78-2.14,1.83-2.93,3.15-.78,1.32-1.37,2.85-1.77,4.59-.4,1.75-.6,3.56-.6,5.46s.2,3.9.6,5.77,1.01,3.52,1.83,4.94c.82,1.43,1.88,2.58,3.17,3.44,1.29.87,2.83,1.3,4.62,1.3,1.65,0,3.07-.38,4.26-1.15,1.2-.77,2.18-1.82,2.97-3.15.78-1.33,1.36-2.88,1.73-4.64.37-1.76.56-3.63.56-5.6s-.19-3.8-.58-5.62-1-3.46-1.83-4.88c-.84-1.43-1.91-2.58-3.21-3.46-1.3-.88-2.88-1.32-4.72-1.32Z"/><path class="cls-8" d="M258.78,163.99l1.36-7.79h26.13l1.36,7.79h-.54c-.25-1.37-.63-2.53-1.15-3.46-.52-.93-1.15-1.68-1.9-2.25-.74-.56-1.58-.96-2.51-1.2-.93-.23-1.96-.35-3.09-.35h-2.97v26.74c0,.96.23,1.57.7,1.83.47.26,1.19.39,2.18.39v.54h-10.26v-.54c.99,0,1.71-.13,2.16-.39.45-.26.68-.87.68-1.83v-26.74h-3.01c-1.1,0-2.12.12-3.05.35-.93.23-1.77.63-2.51,1.2-.74.56-1.37,1.31-1.9,2.25-.52.93-.91,2.09-1.15,3.46h-.54Z"/><path class="cls-8" d="M292.57,156.2h10.38v.54c-.49,0-.93.03-1.3.08-.37.06-.67.17-.91.33-.23.16-.41.41-.54.74-.12.33-.19.77-.19,1.32v16.32c0,3.46.7,6.04,2.1,7.73,1.4,1.69,3.35,2.53,5.85,2.53,1.32,0,2.52-.15,3.61-.45s2.03-.83,2.82-1.59c.8-.75,1.41-1.78,1.85-3.07.44-1.29.66-2.91.66-4.86v-17.02c-.06-.91-.32-1.48-.8-1.71-.48-.23-1.19-.35-2.12-.35v-.54h6.39v.54c-.38,0-.76.03-1.11.08-.36.06-.67.17-.93.33-.26.16-.47.41-.64.74-.16.33-.25.77-.25,1.32v16.61c0,.99-.1,2.12-.29,3.38-.19,1.26-.64,2.45-1.34,3.56-.7,1.11-1.74,2.05-3.13,2.82-1.39.77-3.29,1.15-5.71,1.15-2.2,0-4.03-.28-5.5-.84-1.47-.56-2.65-1.35-3.54-2.35-.89-1-1.52-2.19-1.9-3.56-.37-1.37-.56-2.86-.56-4.45v-16.32c0-.55-.06-.99-.19-1.32-.12-.33-.3-.58-.54-.74-.23-.17-.54-.27-.91-.33-.37-.05-.8-.08-1.3-.08v-.54Z"/><path class="cls-8" d="M325.94,173.88h.54c0,2.06.23,3.83.7,5.32.47,1.48,1.11,2.71,1.92,3.69.81.98,1.76,1.69,2.86,2.14s2.28.68,3.54.68c.77,0,1.5-.08,2.21-.25.7-.17,1.31-.45,1.83-.84.52-.4.93-.91,1.24-1.54s.45-1.4.45-2.31c0-1.15-.38-2.21-1.13-3.15-.76-.95-1.7-1.87-2.82-2.76-1.13-.89-2.35-1.77-3.67-2.64-1.32-.87-2.54-1.77-3.67-2.72-1.13-.95-2.07-1.96-2.82-3.05s-1.13-2.29-1.13-3.61c0-1.21.25-2.25.76-3.13.51-.88,1.17-1.61,2-2.21.82-.59,1.74-1.03,2.76-1.32s2.03-.43,3.05-.43,1.93.11,2.66.33,1.36.46,1.9.72c.54.26,1.01.5,1.42.72.41.22.82.33,1.24.33.55,0,.92-.12,1.11-.35.19-.23.29-.67.29-1.3h.54v9.72h-.54c0-1.37-.21-2.63-.62-3.77-.41-1.14-.98-2.11-1.69-2.92-.71-.81-1.56-1.44-2.53-1.88-.98-.44-2.04-.66-3.19-.66-1.65,0-2.83.39-3.54,1.17-.71.78-1.07,1.78-1.07,2.99,0,1.35.36,2.53,1.09,3.54.73,1.02,1.64,1.95,2.74,2.8,1.1.85,2.29,1.68,3.58,2.47,1.29.8,2.49,1.65,3.58,2.55,1.1.91,2.01,1.91,2.74,3.01.73,1.1,1.09,2.38,1.09,3.83,0,1.04-.15,2.03-.45,2.97-.3.93-.8,1.75-1.5,2.45-.7.7-1.64,1.25-2.82,1.65-1.18.4-2.64.6-4.37.6-1.13,0-2.08-.1-2.84-.31-.77-.21-1.44-.43-2.02-.66-.58-.23-1.09-.45-1.54-.66s-.93-.31-1.42-.31c-1.26,0-1.9.48-1.9,1.44h-.54v-12.36Z"/><path class="cls-9" d="M154.59,25.07c1.57.89,3.77,1.44,6.31,1.61,2.62-.8,5.34-1.26,7.74-1.48-2.28-.97-4.26-2.67-5.73-5.02-.73-1.16-1.28-2.39-1.68-3.67-3.84-3.56-9.33-6.44-19.26-3.98,7.06,4.48,7.97,9.89,12.63,12.55Z"/><path class="cls-7" d="M175,8.25c.98.85,2.11,3.79,1.78,4.74-.02.03-.06.09-.11.17-.24.37-.74,1.15-1.06,1.61-.22.3-.42.66-.61,1.02-.19-.36-.39-.72-.61-1.02-.33-.47-.82-1.24-1.06-1.61-.05-.08-.08-.13-.11-.17-.33-.96.81-3.89,1.78-4.74M175.01,7.64h0c-1.28.67-2.74,4.36-2.23,5.59.02.02.77,1.21,1.21,1.84.38.51.73,1.27,1.02,1.84h0c.29-.57.64-1.33,1.02-1.84.44-.63,1.19-1.82,1.21-1.84.51-1.23-.95-4.91-2.23-5.59h0Z"/><path class="cls-6" d="M174.75,25.12c.05-11.2-5.67-13.79-4.49-25.12-3.72,10.9-2.27,19.46,4.49,25.12Z"/><path class="cls-5" d="M167.87,15.04c-1.81-3.82-2.7-7.72-2.99-12.42-2.38,3.56-3.83,7.13-3.58,10.65.5,6.75,5.71,12.19,12.34,11.94-3.05-2.76-4.99-6.18-5.77-10.17Z"/><path class="cls-3" d="M195.37,25.07c-1.57.89-3.77,1.44-6.31,1.61-2.62-.8-5.34-1.26-7.74-1.48,2.28-.97,4.26-2.67,5.73-5.02.73-1.16,1.28-2.39,1.68-3.67,3.84-3.56,9.33-6.44,19.26-3.98-7.06,4.48-7.97,9.89-12.63,12.55Z"/><path class="cls-4" d="M175.21,25.12c-.05-11.2,5.67-13.79,4.49-25.12,3.72,10.9,2.27,19.46-4.49,25.12Z"/><path class="cls-2" d="M182.09,15.04c1.81-3.82,2.7-7.72,2.99-12.42,2.38,3.56,3.83,7.13,3.58,10.65-.5,6.75-5.71,12.19-12.34,11.94,3.05-2.76,4.99-6.18,5.77-10.17Z"/><path class="cls-10" d="M173.49,79.28v-1.59h-16.54v-19.31c0-1.06.19-1.9.56-2.5.37-.61,1.06-1.1,2.07-1.47l1.35-.56v-.79h-20.18v.79l1.59.64c1.05.38,1.76.88,2.1,1.51.34.64.51,1.49.51,2.55v41.56c0,1.01-.17,1.83-.51,2.47-.34.63-1.05,1.14-2.1,1.51l-1.59.64v.79h20.18v-.79l-1.35-.48c-1.75-.74-2.63-2.09-2.63-4.06v-20.9h16.54Z"/><path class="cls-10" d="M171.87,105.51v-.79l1.67-.64c1.11-.42,1.81-.94,2.11-1.55.29-.61.44-1.44.44-2.5v-41.49c0-1.06-.16-1.91-.48-2.54-.32-.64-1.01-1.14-2.07-1.51l-1.67-.64v-.8h20.27v.8l-1.43.64c-1.01.37-1.7.89-2.07,1.55-.37.66-.56,1.52-.56,2.58v45.3h12.24c1.96,0,3.4-.48,4.33-1.43.93-.95,1.81-2.33,2.66-4.13l3.1-6.68h.79l-.72,13.83h-38.63Z"/></svg>