<?xml version="1.0" encoding="UTF-8"?><svg id="Layer_1" xmlns="http://www.w3.org/2000/svg" xmlns:xlink="http://www.w3.org/1999/xlink" viewBox="0 0 293.92 194.91"><defs><style>.cls-1{fill:url(#linear-gradient-8);}.cls-2{fill:url(#linear-gradient-7);}.cls-3{fill:url(#linear-gradient-5);}.cls-4{fill:url(#linear-gradient-6);}.cls-5{fill:url(#linear-gradient-9);}.cls-6{fill:url(#linear-gradient-4);}.cls-7{fill:url(#linear-gradient-3);}.cls-8{fill:url(#linear-gradient-2);}.cls-9{fill:url(#linear-gradient);}.cls-10{fill:#89995b;}.cls-11{fill:url(#linear-gradient-10);}.cls-12{fill:url(#linear-gradient-11);}.cls-13{fill:url(#linear-gradient-12);}.cls-14{fill:url(#linear-gradient-13);}</style><linearGradient id="linear-gradient" x1="27.58" y1="89.83" x2="27.58" y2="0" gradientUnits="userSpaceOnUse"><stop offset="0" stop-color="#cc922f"/><stop offset="1" stop-color="#e9b428"/></linearGradient><linearGradient id="linear-gradient-2" x1="68.98" x2="68.98" xlink:href="#linear-gradient"/><linearGradient id="linear-gradient-3" x1="110.38" x2="110.38" xlink:href="#linear-gradient"/><linearGradient id="linear-gradient-4" x1="167.01" y1="86.65" x2="167.01" xlink:href="#linear-gradient"/><linearGradient id="linear-gradient-5" x1="216" x2="216" xlink:href="#linear-gradient"/><linearGradient id="linear-gradient-6" x1="265.42" x2="265.42" xlink:href="#linear-gradient"/><linearGradient id="linear-gradient-7" x1="99.05" y1="81.05" x2="137.28" y2="81.05" xlink:href="#linear-gradient"/><linearGradient id="linear-gradient-8" x1="146.4" y1="77.85" x2="146.4" y2="64.57" gradientUnits="userSpaceOnUse"><stop offset="0" stop-color="#e9b428"/><stop offset="1" stop-color="#fcd177"/></linearGradient><linearGradient id="linear-gradient-9" x1="136.74" y1="71.62" x2="146.04" y2="71.62" xlink:href="#linear-gradient-8"/><linearGradient id="linear-gradient-10" x1="126.72" y1="73.57" x2="144.45" y2="73.57" xlink:href="#linear-gradient-8"/><linearGradient id="linear-gradient-11" x1="1.53" y1="81.05" x2="39.76" y2="81.05" gradientTransform="translate(195.22) rotate(-180) scale(1 -1)" xlink:href="#linear-gradient"/><linearGradient id="linear-gradient-12" x1="39.23" y1="71.62" x2="48.52" y2="71.62" gradientTransform="translate(195.22) rotate(-180) scale(1 -1)" xlink:href="#linear-gradient-8"/><linearGradient id="linear-gradient-13" x1="29.2" y1="73.57" x2="46.93" y2="73.57" gradientTransform="translate(195.22) rotate(-180) scale(1 -1)" xlink:href="#linear-gradient-8"/></defs><path class="cls-9" d="M31.34,0v32.33h-7.65V0H0v89.83h23.69v-38.25h7.65v38.25h23.82V0h-23.82Z"/><path class="cls-8" d="M57.13,0v89.83h23.69V0h-23.69Z"/><path class="cls-7" d="M111.3,0h-28.5v89.83h28.5c.43,0,.86-.01,1.28-.02-1.9-1.7-3.38-3.69-4.93-5.75-2.52-3.37-5.14-6.86-10.16-10.04-.98-.63-1.5-1.78-1.31-2.93.19-1.14,1.04-2.07,2.17-2.35,2.95-.74,5.66-1.15,8.14-1.31V16.91h3.95c2.22,0,3.58,1.97,3.58,5.55v44.91c0,.13,0,.26,0,.39,4.01.65,7.22,2.05,9.82,3.67,0-4.85,1.85-9.99,5.64-15.67.69-1.03,1.97-1.52,3.17-1.19,1.21.32,2.07,1.38,2.15,2.62.04.78.11,1.54.18,2.28.47-2.15,1.07-4.4,1.89-6.79.2-.61.6-1.11,1.09-1.46v-24.07c0-17.77-9.62-27.15-26.65-27.15Z"/><path class="cls-6" d="M167.94,0h-28.51v50.73c.26-.03.53-.01.8.05,1.45.32,2.42,1.67,2.27,3.14-.43,4.07-.19,7.24.4,10.07.65-.88,1.38-1.59,2.15-1.99.83-.44,1.87-.44,2.71,0,.74.39,1.45,1.07,2.1,1.92.58-2.81.8-5.96.38-10-.15-1.47.83-2.82,2.27-3.14s2.89.5,3.37,1.9c.82,2.39,1.42,4.64,1.89,6.79.07-.74.14-1.5.18-2.28.08-1.24.94-2.3,2.15-2.62,1.13-.31,2.32.09,3.03,1.01V16.91h3.95c2.22,0,3.57,1.97,3.57,5.55v44.91c0,1.36-.2,2.5-.56,3.37,5.3-2.95,12.92-4.8,24.21-2.02.19-1.59.29-3.27.29-5.05V27.15c0-17.77-9.62-27.15-26.65-27.15ZM185.09,84.06c-.66.89-1.31,1.76-1.99,2.59,4.38-2.29,7.58-5.85,9.46-10.73-3.35,2.64-5.44,5.43-7.47,8.14Z"/><path class="cls-3" d="M235.93,18.14V0h-39.86v69.89c.25.35.42.76.49,1.2.13.77-.06,1.53-.49,2.15v16.59h39.86v-18.14h-16.17v-21.47h14.57v-18.01h-14.57v-14.07h16.17Z"/><path class="cls-4" d="M272.33,0v48L262.58,0h-25.66v89.83h21.59v-47.5l10,47.5h25.41V0h-21.59Z"/><path class="cls-10" d="M26.54,172.18v-78.34H.24v99.7h43.42v-21.36h-17.12Z"/><path class="cls-10" d="M106.72,115.34c-2.18-14.76-14.51-22.86-29.65-22.86h-1.37c-16.71,0-29.99,9.86-29.99,27.66v47.11c0,17.8,13.28,27.66,29.99,27.66h1.37c16.71,0,29.99-9.86,29.99-27.66v-47.11c0-1.67-.12-3.27-.34-4.8ZM80.63,168.34c0,4.25-1.78,5.89-3.97,5.89h-.55c-2.33,0-3.97-1.64-3.97-5.89v-49.3c0-4.24,1.64-5.89,3.97-5.89h.55c2.19,0,3.97,1.65,3.97,5.89v49.3Z"/><path class="cls-10" d="M160.57,105.38c-1.35,0-2.75-.28-4.18-.78-.12.27-.25.54-.43.8-.89,1.23-1.92,1.96-2.93,2.67-1.29.92-2.63,1.86-4.11,4.39-.08.13-.18.25-.28.37h-.01c-.34.41-.77.71-1.27.89-.04.01-.07.02-.11.03-.09.03-.18.07-.27.08-.19.04-.38.06-.57.06h-.02c-.18,0-.38-.02-.57-.06-.08-.01-.15-.05-.23-.07-.06-.02-.11-.03-.16-.05-.64-.23-1.19-.66-1.54-1.25-1.48-2.53-2.82-3.47-4.12-4.39-1-.71-2.04-1.44-2.92-2.67-.19-.26-.31-.53-.43-.8-1.43.5-2.83.78-4.19.78-1.61,0-3.15-.36-4.61-1.08-6.92-3.4-11.46-1.95-11.65-1.89-1.27.42-2.67-.07-3.39-1.19-.71-1.12-.59-2.58.32-3.55,1.39-1.47,3.08-2.74,4.95-3.83h-9.28v21.37h13.55v78.33h26.43v-78.33h13.56v-9.95c-.51.08-1.02.12-1.54.12Z"/><path class="cls-10" d="M200.46,93.84v74.5c0,4.25-1.78,5.89-3.98,5.89h-.54c-2.33,0-3.98-1.64-3.98-5.89v-74.5h-17.01c1.87,1.09,3.56,2.36,4.95,3.83.93.98,1.06,2.47.32,3.59s-2.14,1.59-3.39,1.15c-.26-.09-4.64-1.43-11.3,1.73v63.11c0,17.8,13.29,27.66,30,27.66h1.36c16.71,0,30-9.86,30-27.66v-73.41h-26.43Z"/><path class="cls-10" d="M272.76,132.74l-10.95-3.97c-4.25-1.51-5.21-3.02-5.21-7.13v-3.14c0-3.7,1.51-5.35,3.84-5.35h.41c2.33,0,3.83,1.78,3.83,5.35v6.84h26.16v-6.16c0-16.84-12.87-26.7-29.58-26.7h-1.23c-16.85,0-29.59,9.86-29.59,26.84v6.98c0,11.78,5.62,21.09,18.08,25.2l11.23,4.11c4.11,1.5,5.07,3.56,5.07,7.67v5.06c0,4.11-1.64,5.89-3.97,5.89h-.41c-2.33,0-3.97-1.64-3.97-5.89v-8.35h-26.3v6.98c0,18.08,13.01,27.94,29.86,27.94h1.23c16.71,0,30.26-9.86,30.26-29.31v-5.88c0-11.64-4.79-21.92-18.76-26.98Z"/><path class="cls-10" d="M145.78,92.63v.23c0,.76-.28,1.5-.8,2.06-3.37,3.65-10.16,9.69-16.09,6.78-8.27-4.07-13.89-2.03-13.89-2.03,7.01-7.42,22.32-9.17,29.06-8.83.96.05,1.71.84,1.71,1.8Z"/><path class="cls-2" d="M117.14,89.55c2.25,1.28,5.41,2.07,9.04,2.3,3.76-1.14,7.66-1.81,11.1-2.13-3.27-1.39-6.11-3.83-8.22-7.19-1.04-1.66-1.84-3.43-2.41-5.27-5.51-5.1-13.38-9.22-27.61-5.71,10.12,6.42,11.42,14.18,18.1,17.99Z"/><path class="cls-10" d="M146.4,95.27c-1.68,1.89-4.43,4.63-7.63,6.48.01.67.04,1.4.45,1.96,1.57,2.2,4.28,2.34,7.18,7.28,0,0,0,0,0,0v-15.72Z"/><path class="cls-10" d="M177.79,99.67s-5.61-2.04-13.89,2.03c-5.93,2.92-12.71-3.12-16.08-6.77-.52-.56-.8-1.29-.8-2.06v-.24c0-.96.75-1.75,1.71-1.8,6.74-.34,22.04,1.41,29.05,8.83Z"/><path class="cls-10" d="M146.41,95.27c1.68,1.89,4.43,4.63,7.63,6.48-.01.67-.04,1.4-.45,1.96-1.57,2.2-4.28,2.34-7.18,7.28,0,0,0,0,0,0v-15.72Z"/><path class="cls-1" d="M146.4,65.45c1.4,1.22,3.03,5.43,2.55,6.8-.03.05-.08.12-.15.24-.34.53-1.06,1.65-1.52,2.31-.31.43-.6.94-.87,1.46-.27-.52-.56-1.04-.87-1.46-.47-.67-1.18-1.78-1.52-2.31-.07-.12-.12-.19-.15-.24-.48-1.37,1.15-5.57,2.55-6.8M146.41,64.57h0c-1.83.96-3.93,6.25-3.19,8.01.03.03,1.1,1.74,1.74,2.64.54.73,1.04,1.82,1.46,2.63h0c.42-.82.92-1.9,1.46-2.63.63-.91,1.71-2.61,1.74-2.64.73-1.76-1.36-7.04-3.19-8.01h0Z"/><path class="cls-5" d="M146.04,89.63c.07-16.05-8.13-19.77-6.43-36.01-5.33,15.62-3.25,27.89,6.43,36.01Z"/><path class="cls-11" d="M136.18,75.18c-2.6-5.48-3.87-11.07-4.29-17.8-3.41,5.1-5.5,10.22-5.13,15.27.71,9.68,8.19,17.48,17.69,17.12-4.37-3.96-7.15-8.85-8.27-14.58Z"/><path class="cls-12" d="M175.6,89.55c-2.25,1.28-5.41,2.07-9.04,2.3-3.76-1.14-7.66-1.81-11.1-2.13,3.27-1.39,6.11-3.83,8.22-7.19,1.04-1.66,1.84-3.43,2.41-5.27,5.51-5.1,13.38-9.22,27.61-5.71-10.12,6.42-11.42,14.18-18.1,17.99Z"/><path class="cls-13" d="M146.7,89.63c-.07-16.05,8.13-19.77,6.43-36.01,5.33,15.62,3.25,27.89-6.43,36.01Z"/><path class="cls-14" d="M156.56,75.18c2.6-5.48,3.87-11.07,4.29-17.8,3.41,5.1,5.5,10.22,5.13,15.27-.71,9.68-8.19,17.48-17.69,17.12,4.37-3.96,7.15-8.85,8.27-14.58Z"/></svg>